<svg width="280" height="109" viewBox="0 0 280 109" fill="none" xmlns="http://www.w3.org/2000/svg">
<mask id="path-1-outside-1_289_29" maskUnits="userSpaceOnUse" x="-1" y="-1" width="282" height="111" fill="black">
<rect fill="white" x="-1" y="-1" width="282" height="111"/>
<path d="M56.2222 93.4C57.1822 94.52 57.6622 95.64 57.6622 96.76C57.6622 97.88 57.1022 99 55.9822 100.12L54.7822 101.44C53.6622 102.56 52.5422 103.12 51.4222 103.12C50.2222 103.12 49.0622 102.52 47.9422 101.32L2.10219 51.4C1.06219 50.2 0.542188 49.08 0.542188 48.04C0.542188 46.84 1.14219 45.72 2.34219 44.68L47.8222 1.84C48.8622 0.799998 49.9422 0.279998 51.0622 0.279998C52.2622 0.279998 53.4222 0.879997 54.5422 2.08L55.8622 3.52C56.9022 4.56 57.4222 5.68 57.4222 6.88C57.4222 8.16 56.8622 9.32 55.7422 10.36L19.6222 44.68C18.5022 45.8 17.9422 46.92 17.9422 48.04C17.9422 49.08 18.4222 50.2 19.3822 51.4L56.2222 93.4ZM88.4619 94C87.1819 94 86.3419 93.8 85.9419 93.4C85.6219 92.92 85.4619 92.04 85.4619 90.76V87.04H95.9019C98.3819 87.04 99.9419 86.52 100.582 85.48C101.222 84.44 101.542 82.68 101.542 80.2V23.8C101.542 21.32 101.222 19.56 100.582 18.52C99.9419 17.48 98.3819 16.96 95.9019 16.96H80.6619V94H71.0619V13.24C71.0619 11.96 71.2619 11.12 71.6619 10.72C72.1419 10.24 73.0219 9.99999 74.3019 9.99999H99.7419C103.902 9.99999 106.822 10.88 108.502 12.64C110.262 14.32 111.142 17.24 111.142 21.4V82.6C111.142 86.76 110.262 89.72 108.502 91.48C106.822 93.16 103.902 94 99.7419 94H88.4619ZM123.212 13.24C122.732 11.08 123.532 9.99999 125.612 9.99999H132.212L145.052 69.64L146.732 82.96H147.452L149.132 69.64L160.532 13.24C160.852 11.96 161.292 11.12 161.852 10.72C162.412 10.24 163.332 9.99999 164.612 9.99999H170.612L153.332 90.76C153.012 92.04 152.572 92.92 152.012 93.4C151.532 93.8 150.652 94 149.372 94H140.492L123.212 13.24ZM212.589 2.79999L185.349 105.28C184.949 106.56 184.469 107.4 183.909 107.8C183.429 108.28 182.549 108.52 181.269 108.52H175.389L202.629 6.04C203.029 4.76 203.469 3.92 203.949 3.52C204.509 3.04 205.429 2.79999 206.709 2.79999H212.589ZM223.701 10.72C222.741 9.6 222.261 8.48 222.261 7.35999C222.261 6.07999 222.781 4.92 223.821 3.87999L225.381 2.19999C226.421 1.07999 227.581 0.519995 228.861 0.519995C230.061 0.519995 231.181 1.07999 232.221 2.19999L277.941 52.12C278.981 53.32 279.501 54.44 279.501 55.48C279.501 56.6 278.901 57.72 277.701 58.84L232.341 101.68C231.301 102.72 230.221 103.24 229.101 103.24C227.901 103.24 226.701 102.64 225.501 101.44L224.181 100C223.141 98.96 222.621 97.84 222.621 96.64C222.621 95.36 223.181 94.2 224.301 93.16L260.421 58.84C261.621 57.72 262.221 56.56 262.221 55.36C262.221 54.24 261.741 53.16 260.781 52.12L223.701 10.72Z"/>
</mask>
<g filter="url(#filter0_iii_289_29)">
<path d="M56.2222 93.4C57.1822 94.52 57.6622 95.64 57.6622 96.76C57.6622 97.88 57.1022 99 55.9822 100.12L54.7822 101.44C53.6622 102.56 52.5422 103.12 51.4222 103.12C50.2222 103.12 49.0622 102.52 47.9422 101.32L2.10219 51.4C1.06219 50.2 0.542188 49.08 0.542188 48.04C0.542188 46.84 1.14219 45.72 2.34219 44.68L47.8222 1.84C48.8622 0.799998 49.9422 0.279998 51.0622 0.279998C52.2622 0.279998 53.4222 0.879997 54.5422 2.08L55.8622 3.52C56.9022 4.56 57.4222 5.68 57.4222 6.88C57.4222 8.16 56.8622 9.32 55.7422 10.36L19.6222 44.68C18.5022 45.8 17.9422 46.92 17.9422 48.04C17.9422 49.08 18.4222 50.2 19.3822 51.4L56.2222 93.4ZM88.4619 94C87.1819 94 86.3419 93.8 85.9419 93.4C85.6219 92.92 85.4619 92.04 85.4619 90.76V87.04H95.9019C98.3819 87.04 99.9419 86.52 100.582 85.48C101.222 84.44 101.542 82.68 101.542 80.2V23.8C101.542 21.32 101.222 19.56 100.582 18.52C99.9419 17.48 98.3819 16.96 95.9019 16.96H80.6619V94H71.0619V13.24C71.0619 11.96 71.2619 11.12 71.6619 10.72C72.1419 10.24 73.0219 9.99999 74.3019 9.99999H99.7419C103.902 9.99999 106.822 10.88 108.502 12.64C110.262 14.32 111.142 17.24 111.142 21.4V82.6C111.142 86.76 110.262 89.72 108.502 91.48C106.822 93.16 103.902 94 99.7419 94H88.4619ZM123.212 13.24C122.732 11.08 123.532 9.99999 125.612 9.99999H132.212L145.052 69.64L146.732 82.96H147.452L149.132 69.64L160.532 13.24C160.852 11.96 161.292 11.12 161.852 10.72C162.412 10.24 163.332 9.99999 164.612 9.99999H170.612L153.332 90.76C153.012 92.04 152.572 92.92 152.012 93.4C151.532 93.8 150.652 94 149.372 94H140.492L123.212 13.24ZM212.589 2.79999L185.349 105.28C184.949 106.56 184.469 107.4 183.909 107.8C183.429 108.28 182.549 108.52 181.269 108.52H175.389L202.629 6.04C203.029 4.76 203.469 3.92 203.949 3.52C204.509 3.04 205.429 2.79999 206.709 2.79999H212.589ZM223.701 10.72C222.741 9.6 222.261 8.48 222.261 7.35999C222.261 6.07999 222.781 4.92 223.821 3.87999L225.381 2.19999C226.421 1.07999 227.581 0.519995 228.861 0.519995C230.061 0.519995 231.181 1.07999 232.221 2.19999L277.941 52.12C278.981 53.32 279.501 54.44 279.501 55.48C279.501 56.6 278.901 57.72 277.701 58.84L232.341 101.68C231.301 102.72 230.221 103.24 229.101 103.24C227.901 103.24 226.701 102.64 225.501 101.44L224.181 100C223.141 98.96 222.621 97.84 222.621 96.64C222.621 95.36 223.181 94.2 224.301 93.16L260.421 58.84C261.621 57.72 262.221 56.56 262.221 55.36C262.221 54.24 261.741 53.16 260.781 52.12L223.701 10.72Z" fill="#F4F4F4"/>
</g>
<path d="M56.2222 93.4L56.9815 92.7492L56.974 92.7406L56.2222 93.4ZM55.9822 100.12L55.2751 99.4129L55.2583 99.4297L55.2423 99.4473L55.9822 100.12ZM54.7822 101.44L55.4893 102.147L55.5061 102.13L55.5221 102.113L54.7822 101.44ZM47.9422 101.32L47.2056 101.996L47.2111 102.002L47.9422 101.32ZM2.10219 51.4L1.3465 52.0549L1.35591 52.0658L1.36562 52.0764L2.10219 51.4ZM2.34219 44.68L2.99712 45.4357L3.01277 45.4221L3.02785 45.4079L2.34219 44.68ZM47.8222 1.84L48.5079 2.56792L48.5187 2.55767L48.5293 2.54711L47.8222 1.84ZM54.5422 2.08L55.2794 1.40424L55.2732 1.39768L54.5422 2.08ZM55.8622 3.52L55.125 4.19572L55.1397 4.21174L55.1551 4.22711L55.8622 3.52ZM55.7422 10.36L55.0617 9.62716L55.0534 9.63506L55.7422 10.36ZM19.6222 44.68L18.9334 43.9551L18.9241 43.9639L18.9151 43.9729L19.6222 44.68ZM19.3822 51.4L18.6013 52.0247L18.6155 52.0424L18.6304 52.0594L19.3822 51.4ZM55.4629 94.0508C56.3176 95.0479 56.6622 95.9457 56.6622 96.76H58.6622C58.6622 95.3343 58.0468 93.9921 56.9814 92.7492L55.4629 94.0508ZM56.6622 96.76C56.6622 97.5212 56.2861 98.4019 55.2751 99.4129L56.6893 100.827C57.9183 99.5981 58.6622 98.2388 58.6622 96.76H56.6622ZM55.2423 99.4473L54.0422 100.767L55.5221 102.113L56.7221 100.793L55.2423 99.4473ZM54.0751 100.733C53.0641 101.744 52.1834 102.12 51.4222 102.12V104.12C52.9009 104.12 54.2603 103.376 55.4893 102.147L54.0751 100.733ZM51.4222 102.12C50.5897 102.12 49.6761 101.712 48.6732 100.638L47.2111 102.002C48.4483 103.328 49.8547 104.12 51.4222 104.12V102.12ZM48.6788 100.644L2.83875 50.7236L1.36562 52.0764L47.2056 101.996L48.6788 100.644ZM2.85788 50.7451C1.89565 49.6348 1.54219 48.7405 1.54219 48.04H-0.457812C-0.457812 49.4195 0.228727 50.7652 1.3465 52.0549L2.85788 50.7451ZM1.54219 48.04C1.54219 47.2165 1.94116 46.3509 2.99712 45.4357L1.68726 43.9243C0.343218 45.0891 -0.457812 46.4635 -0.457812 48.04H1.54219ZM3.02785 45.4079L48.5079 2.56792L47.1365 1.11208L1.65652 43.9521L3.02785 45.4079ZM48.5293 2.54711C49.4428 1.63363 50.2828 1.28 51.0622 1.28V-0.720002C49.6016 -0.720002 48.2816 -0.033637 47.1151 1.13289L48.5293 2.54711ZM51.0622 1.28C51.8947 1.28 52.8083 1.6878 53.8111 2.76231L55.2732 1.39768C54.0361 0.0721895 52.6297 -0.720002 51.0622 -0.720002V1.28ZM53.805 2.75572L55.125 4.19572L56.5993 2.84427L55.2793 1.40427L53.805 2.75572ZM55.1551 4.22711C56.0525 5.12455 56.4222 6.0027 56.4222 6.88H58.4222C58.4222 5.35729 57.7518 3.99544 56.5693 2.81289L55.1551 4.22711ZM56.4222 6.88C56.4222 7.82834 56.0209 8.73658 55.0617 9.6272L56.4226 11.0928C57.7035 9.90341 58.4222 8.49165 58.4222 6.88H56.4222ZM55.0534 9.63506L18.9334 43.9551L20.311 45.4049L56.431 11.0849L55.0534 9.63506ZM18.9151 43.9729C17.6861 45.2019 16.9422 46.5612 16.9422 48.04H18.9422C18.9422 47.2788 19.3183 46.3981 20.3293 45.3871L18.9151 43.9729ZM16.9422 48.04C16.9422 49.3932 17.5648 50.729 18.6013 52.0247L20.1631 50.7753C19.2796 49.671 18.9422 48.7668 18.9422 48.04H16.9422ZM18.6304 52.0594L55.4704 94.0594L56.974 92.7406L20.134 50.7406L18.6304 52.0594ZM85.9419 93.4L85.1098 93.9547L85.1648 94.0371L85.2348 94.1071L85.9419 93.4ZM85.4619 87.04V86.04H84.4619V87.04H85.4619ZM100.582 85.48L101.434 86.0041L101.434 86.0041L100.582 85.48ZM100.582 18.52L99.7302 19.0441L99.7302 19.0441L100.582 18.52ZM80.6619 16.96V15.96H79.6619V16.96H80.6619ZM80.6619 94V95H81.6619V94H80.6619ZM71.0619 94H70.0619V95H71.0619V94ZM71.6619 10.72L72.369 11.4271L72.369 11.4271L71.6619 10.72ZM108.502 12.64L107.779 13.3305L107.795 13.3473L107.811 13.3634L108.502 12.64ZM108.502 91.48L107.795 90.7729L107.795 90.7729L108.502 91.48ZM88.4619 93C87.8663 93 87.4207 92.9527 87.1035 92.8772C86.7759 92.7992 86.6664 92.7104 86.649 92.6929L85.2348 94.1071C85.6173 94.4896 86.1279 94.7008 86.6403 94.8228C87.163 94.9473 87.7775 95 88.4619 95V93ZM86.7739 92.8453C86.7197 92.764 86.6334 92.573 86.5657 92.2011C86.5 91.8393 86.4619 91.3633 86.4619 90.76H84.4619C84.4619 91.4367 84.5038 92.0407 84.598 92.5589C84.6904 93.067 84.844 93.556 85.1098 93.9547L86.7739 92.8453ZM86.4619 90.76V87.04H84.4619V90.76H86.4619ZM85.4619 88.04H95.9019V86.04H85.4619V88.04ZM95.9019 88.04C97.2005 88.04 98.3283 87.9053 99.2481 87.5987C100.173 87.2902 100.954 86.7841 101.434 86.0041L99.7302 84.9559C99.5702 85.2159 99.2503 85.4898 98.6156 85.7013C97.9755 85.9147 97.0833 86.04 95.9019 86.04V88.04ZM101.434 86.0041C102.228 84.7126 102.542 82.7097 102.542 80.2H100.542C100.542 82.6503 100.215 84.1674 99.7302 84.9559L101.434 86.0041ZM102.542 80.2V23.8H100.542V80.2H102.542ZM102.542 23.8C102.542 21.2903 102.228 19.2874 101.434 17.9959L99.7302 19.0441C100.215 19.8326 100.542 21.3497 100.542 23.8H102.542ZM101.434 17.9959C100.954 17.2159 100.173 16.7097 99.2481 16.4013C98.3283 16.0947 97.2005 15.96 95.9019 15.96V17.96C97.0833 17.96 97.9755 18.0853 98.6156 18.2987C99.2503 18.5102 99.5702 18.7841 99.7302 19.0441L101.434 17.9959ZM95.9019 15.96H80.6619V17.96H95.9019V15.96ZM79.6619 16.96V94H81.6619V16.96H79.6619ZM80.6619 93H71.0619V95H80.6619V93ZM72.0619 94V13.24H70.0619V94H72.0619ZM72.0619 13.24C72.0619 12.6444 72.1092 12.1988 72.1847 11.8816C72.2627 11.554 72.3515 11.4446 72.369 11.4271L70.9548 10.0129C70.5722 10.3954 70.3611 10.906 70.2391 11.4184C70.1146 11.9412 70.0619 12.5556 70.0619 13.24H72.0619ZM72.369 11.4271C72.5524 11.2437 73.0773 11 74.3019 11V8.99999C72.9665 8.99999 71.7313 9.23633 70.9548 10.0129L72.369 11.4271ZM74.3019 11H99.7419V8.99999H74.3019V11ZM99.7419 11C103.811 11 106.384 11.8697 107.779 13.3305L109.225 11.9495C107.26 9.89025 103.993 8.99999 99.7419 8.99999V11ZM107.811 13.3634C109.272 14.7577 110.142 17.3307 110.142 21.4H112.142C112.142 17.1493 111.252 13.8823 109.192 11.9166L107.811 13.3634ZM110.142 21.4V82.6H112.142V21.4H110.142ZM110.142 82.6C110.142 86.6629 109.275 89.2928 107.795 90.7729L109.209 92.1871C111.249 90.1472 112.142 86.8571 112.142 82.6H110.142ZM107.795 90.7729C106.401 92.1663 103.821 93 99.7419 93V95C103.983 95 107.242 94.1537 109.209 92.1871L107.795 90.7729ZM99.7419 93H88.4619V95H99.7419V93ZM123.212 13.24L124.19 13.0308L124.188 13.0231L123.212 13.24ZM132.212 9.99999L133.19 9.78952L133.02 8.99999H132.212V9.99999ZM145.052 69.64L146.044 69.5149L146.039 69.4719L146.03 69.4295L145.052 69.64ZM146.732 82.96L145.74 83.0851L145.85 83.96H146.732V82.96ZM147.452 82.96V83.96H148.334L148.444 83.0851L147.452 82.96ZM149.132 69.64L148.152 69.4419L148.145 69.4781L148.14 69.5149L149.132 69.64ZM160.532 13.24L159.562 12.9975L159.557 13.0196L159.552 13.0419L160.532 13.24ZM161.852 10.72L162.433 11.5337L162.469 11.508L162.503 11.4793L161.852 10.72ZM170.612 9.99999L171.59 10.2092L171.849 8.99999H170.612V9.99999ZM153.332 90.76L154.302 91.0025L154.306 90.9859L154.31 90.9692L153.332 90.76ZM152.012 93.4L152.652 94.1683L152.663 94.1593L152.012 93.4ZM140.492 94L139.514 94.2092L139.684 95H140.492V94ZM124.188 13.0231C123.972 12.0482 124.113 11.5977 124.256 11.4052C124.382 11.2351 124.711 11 125.612 11V8.99999C124.433 8.99999 123.323 9.30486 122.649 10.2148C121.991 11.1022 121.973 12.2717 122.236 13.4569L124.188 13.0231ZM125.612 11H132.212V8.99999H125.612V11ZM131.235 10.2105L144.075 69.8505L146.03 69.4295L133.19 9.78952L131.235 10.2105ZM144.06 69.7651L145.74 83.0851L147.724 82.8349L146.044 69.5149L144.06 69.7651ZM146.732 83.96H147.452V81.96H146.732V83.96ZM148.444 83.0851L150.124 69.7651L148.14 69.5149L146.46 82.8349L148.444 83.0851ZM150.112 69.8381L161.512 13.4381L159.552 13.0419L148.152 69.4419L150.112 69.8381ZM161.502 13.4825C161.811 12.2498 162.179 11.7155 162.433 11.5337L161.271 9.90627C160.405 10.5245 159.894 11.6702 159.562 12.9975L161.502 13.4825ZM162.503 11.4793C162.789 11.2339 163.411 11 164.612 11V8.99999C163.253 8.99999 162.035 9.2461 161.201 9.96074L162.503 11.4793ZM164.612 11H170.612V8.99999H164.612V11ZM169.634 9.79076L152.354 90.5508L154.31 90.9692L171.59 10.2092L169.634 9.79076ZM152.362 90.5175C152.058 91.7354 151.682 92.3659 151.361 92.6407L152.663 94.1593C153.462 93.474 153.967 92.3446 154.302 91.0025L152.362 90.5175ZM151.372 92.6318C151.183 92.7891 150.624 93 149.372 93V95C150.681 95 151.881 94.8109 152.652 94.1682L151.372 92.6318ZM149.372 93H140.492V95H149.372V93ZM141.47 93.7908L124.19 13.0308L122.234 13.4492L139.514 94.2092L141.47 93.7908ZM212.589 2.79999L213.555 3.05688L213.889 1.79999H212.589V2.79999ZM185.349 105.28L186.303 105.578L186.31 105.558L186.315 105.537L185.349 105.28ZM183.909 107.8L183.328 106.986L183.26 107.034L183.202 107.093L183.909 107.8ZM175.389 108.52L174.422 108.263L174.088 109.52H175.389V108.52ZM202.629 6.04L201.674 5.74172L201.668 5.76228L201.662 5.78311L202.629 6.04ZM203.949 3.52L204.589 4.2883L204.6 4.27925L203.949 3.52ZM211.622 2.54311L184.382 105.023L186.315 105.537L213.555 3.05688L211.622 2.54311ZM184.394 104.982C184.007 106.221 183.607 106.787 183.328 106.986L184.49 108.614C185.33 108.013 185.891 106.899 186.303 105.578L184.394 104.982ZM183.202 107.093C183.018 107.276 182.493 107.52 181.269 107.52V109.52C182.604 109.52 183.839 109.284 184.616 108.507L183.202 107.093ZM181.269 107.52H175.389V109.52H181.269V107.52ZM176.355 108.777L203.595 6.29688L201.662 5.78311L174.422 108.263L176.355 108.777ZM203.583 6.33827C203.978 5.07453 204.35 4.48732 204.589 4.28822L203.309 2.75178C202.587 3.35267 202.079 4.44547 201.674 5.74172L203.583 6.33827ZM204.6 4.27925C204.886 4.03389 205.508 3.79999 206.709 3.79999V1.79999C205.35 1.79999 204.132 2.0461 203.298 2.76074L204.6 4.27925ZM206.709 3.79999H212.589V1.79999H206.709V3.79999ZM223.701 10.72L222.942 11.3708L222.949 11.3791L222.956 11.3872L223.701 10.72ZM223.821 3.87999L224.528 4.5871L224.541 4.57401L224.554 4.56045L223.821 3.87999ZM225.381 2.19999L224.648 1.51954L224.648 1.51954L225.381 2.19999ZM232.221 2.19999L232.958 1.52458L232.954 1.51954L232.221 2.19999ZM277.941 52.12L278.697 51.4651L278.688 51.4547L278.678 51.4446L277.941 52.12ZM277.701 58.84L277.019 58.1089L277.014 58.113L277.701 58.84ZM232.341 101.68L231.654 100.953L231.644 100.963L231.634 100.973L232.341 101.68ZM225.501 101.44L224.764 102.116L224.778 102.132L224.794 102.147L225.501 101.44ZM224.181 100L224.918 99.3243L224.903 99.3083L224.888 99.2929L224.181 100ZM224.301 93.16L224.981 93.8928L224.99 93.8849L224.301 93.16ZM260.421 58.84L259.739 58.1089L259.732 58.1151L260.421 58.84ZM260.781 52.12L260.036 52.7872L260.041 52.7928L260.046 52.7983L260.781 52.12ZM224.46 10.0692C223.606 9.07215 223.261 8.17433 223.261 7.35999H221.261C221.261 8.78567 221.876 10.1278 222.942 11.3708L224.46 10.0692ZM223.261 7.35999C223.261 6.38522 223.645 5.46989 224.528 4.5871L223.114 3.17289C221.917 4.3701 221.261 5.77477 221.261 7.35999H223.261ZM224.554 4.56045L226.114 2.88045L224.648 1.51954L223.088 3.19954L224.554 4.56045ZM226.114 2.88045C227.004 1.92132 227.913 1.51999 228.861 1.51999V-0.480005C227.249 -0.480005 225.838 0.238674 224.648 1.51954L226.114 2.88045ZM228.861 1.51999C229.711 1.51999 230.582 1.90498 231.488 2.88045L232.954 1.51954C231.78 0.255006 230.411 -0.480005 228.861 -0.480005V1.51999ZM231.483 2.8754L277.203 52.7954L278.678 51.4446L232.958 1.52459L231.483 2.8754ZM277.185 52.7749C278.147 53.8852 278.501 54.7795 278.501 55.48H280.501C280.501 54.1005 279.814 52.7548 278.697 51.4651L277.185 52.7749ZM278.501 55.48C278.501 56.2151 278.111 57.0893 277.019 58.1089L278.383 59.5711C279.691 58.3507 280.501 56.9849 280.501 55.48H278.501ZM277.014 58.113L231.654 100.953L233.028 102.407L278.388 59.567L277.014 58.113ZM231.634 100.973C230.72 101.886 229.88 102.24 229.101 102.24V104.24C230.561 104.24 231.882 103.554 233.048 102.387L231.634 100.973ZM229.101 102.24C228.26 102.24 227.299 101.824 226.208 100.733L224.794 102.147C226.103 103.456 227.542 104.24 229.101 104.24V102.24ZM226.238 100.764L224.918 99.3243L223.444 100.676L224.764 102.116L226.238 100.764ZM224.888 99.2929C223.991 98.3954 223.621 97.5173 223.621 96.64H221.621C221.621 98.1627 222.291 99.5246 223.474 100.707L224.888 99.2929ZM223.621 96.64C223.621 95.6917 224.022 94.7834 224.981 93.8928L223.62 92.4272C222.34 93.6166 221.621 95.0283 221.621 96.64H223.621ZM224.99 93.8849L261.11 59.5649L259.732 58.1151L223.612 92.4351L224.99 93.8849ZM261.103 59.5711C262.429 58.3339 263.221 56.9275 263.221 55.36H261.221C261.221 56.1925 260.813 57.1061 259.739 58.1089L261.103 59.5711ZM263.221 55.36C263.221 53.9273 262.6 52.6158 261.516 51.4417L260.046 52.7983C260.882 53.7042 261.221 54.5527 261.221 55.36H263.221ZM261.526 51.4528L224.446 10.0528L222.956 11.3872L260.036 52.7872L261.526 51.4528Z" fill="white" mask="url(#path-1-outside-1_289_29)"/>
<defs>
<filter id="filter0_iii_289_29" x="0.541992" y="0.280029" width="278.959" height="112.24" filterUnits="userSpaceOnUse" color-interpolation-filters="sRGB">
<feFlood flood-opacity="0" result="BackgroundImageFix"/>
<feBlend mode="normal" in="SourceGraphic" in2="BackgroundImageFix" result="shape"/>
<feColorMatrix in="SourceAlpha" type="matrix" values="0 0 0 0 0 0 0 0 0 0 0 0 0 0 0 0 0 0 127 0" result="hardAlpha"/>
<feOffset dy="4"/>
<feGaussianBlur stdDeviation="2"/>
<feComposite in2="hardAlpha" operator="arithmetic" k2="-1" k3="1"/>
<feColorMatrix type="matrix" values="0 0 0 0 0 0 0 0 0 0 0 0 0 0 0 0 0 0 0.25 0"/>
<feBlend mode="normal" in2="shape" result="effect1_innerShadow_289_29"/>
<feColorMatrix in="SourceAlpha" type="matrix" values="0 0 0 0 0 0 0 0 0 0 0 0 0 0 0 0 0 0 127 0" result="hardAlpha"/>
<feOffset dy="4"/>
<feGaussianBlur stdDeviation="2"/>
<feComposite in2="hardAlpha" operator="arithmetic" k2="-1" k3="1"/>
<feColorMatrix type="matrix" values="0 0 0 0 0 0 0 0 0 0 0 0 0 0 0 0 0 0 0.25 0"/>
<feBlend mode="normal" in2="effect1_innerShadow_289_29" result="effect2_innerShadow_289_29"/>
<feColorMatrix in="SourceAlpha" type="matrix" values="0 0 0 0 0 0 0 0 0 0 0 0 0 0 0 0 0 0 127 0" result="hardAlpha"/>
<feOffset dy="4"/>
<feGaussianBlur stdDeviation="2"/>
<feComposite in2="hardAlpha" operator="arithmetic" k2="-1" k3="1"/>
<feColorMatrix type="matrix" values="0 0 0 0 0 0 0 0 0 0 0 0 0 0 0 0 0 0 0.25 0"/>
<feBlend mode="normal" in2="effect2_innerShadow_289_29" result="effect3_innerShadow_289_29"/>
</filter>
</defs>
</svg>
